<svg width="26" height="27" viewBox="0 0 26 27" fill="none" xmlns="http://www.w3.org/2000/svg">
<path d="M5.27849 7.11407H3.89875C3.16688 7.11407 2.46499 7.4048 1.94749 7.9223C1.42998 8.43981 1.13925 9.1417 1.13925 9.87356V22.2913C1.13925 23.0231 1.42998 23.725 1.94749 24.2425C2.46499 24.76 3.16688 25.0508 3.89875 25.0508H16.3165C17.0483 25.0508 17.7502 24.76 18.2677 24.2425C18.7852 23.725 19.076 23.0231 19.076 22.2913V20.9115" stroke="black" stroke-width="2" stroke-linecap="round" stroke-linejoin="round"/>
<path d="M17.6962 4.35457L21.8355 8.49381M23.7464 6.54147C24.2898 5.99806 24.5951 5.26104 24.5951 4.49255C24.5951 3.72405 24.2898 2.98703 23.7464 2.44362C23.203 1.90022 22.466 1.59493 21.6975 1.59493C20.929 1.59493 20.192 1.90022 19.6486 2.44362L8.03799 14.0128V18.152H12.1772L23.7464 6.54147Z" stroke="black" stroke-width="2" stroke-linecap="round" stroke-linejoin="round"/>
</svg>
